<?xml version="1.0"?>
<svg width="636" height="636" xmlns="http://www.w3.org/2000/svg" xmlns:svg="http://www.w3.org/2000/svg" xmlns:xlink="http://www.w3.org/1999/xlink">
 <style>
  <![CDATA[.B{fill:#1c1f2c}.C{fill:#2e3242}.D{fill:#6366f1}]]>
 </style>
 <defs>
  <clipPath id="A">
   <path d="m0,0l289,0l0,526l-289,0l0,-526z" fill="#fff" id="svg_1" transform="translate(259 110)"/>
  </clipPath>
  <clipPath id="B">
   <path d="m0,0l204.44,0l0,415.24l-204.44,0l0,-415.24z" fill="#fff" id="svg_2" transform="translate(258.5 110)"/>
  </clipPath>
  <path d="m308.15,304.29l1.14,2.3l10.57,6.1a16.05,16.05 0 0 0 -0.92,-1.9a13.7,13.7 0 0 0 -1.07,-1.68a13.44,13.44 0 0 0 -2.25,-2.37l-0.51,-0.39l-0.74,-0.48c-0.45,-0.27 -0.92,-0.51 -1.4,-0.73l-0.76,-0.28l-0.18,-0.06c-0.46,-0.15 -0.93,-0.27 -1.4,-0.35a10.64,10.64 0 0 0 -2.48,-0.16z" id="C"/>
  <path d="m170.21,381.06l89.44,-51.45l23.1,13.31l0,3.5l-89.43,51.46c-8.05,4.63 -19.75,5.41 -26.12,1.74c-2.72,-1.57 -4.01,-3.7 -4,-5.98l0,-3.56c0.04,-2.99 2.41,-6.35 7.01,-9.02z" id="D"/>
  <path d="m276.42,339.23l2.3,1.32c2.53,-13.81 11.02,-27.81 21.13,-33.65a17.63,17.63 0 0 1 8.37,-2.61a10.65,10.65 0 0 1 2.41,0.16a10.61,10.61 0 0 1 1.39,0.34l0.18,0.07c0.26,0.09 0.51,0.17 0.77,0.28c0.48,0.22 0.95,0.46 1.4,0.73a8.49,8.49 0 0 1 0.73,0.48l0.52,0.39c0.84,0.7 1.6,1.49 2.25,2.37c0.39,0.53 0.75,1.09 1.07,1.68c0.35,0.61 0.66,1.25 0.92,1.9c0.48,0.48 1.09,0.81 1.75,0.95s1.36,0.08 1.99,-0.17c-1.31,-5.56 -4,-9.48 -7.6,-11.55c-4.33,-2.49 -9.97,-2.26 -16.15,1.3c-10.92,6.29 -20.18,21.06 -23.43,36.01z" id="E"/>
  <path d="m276.41,339.23c3.25,-14.95 12.55,-29.72 23.43,-36.01c6.17,-3.56 11.82,-3.79 16.14,-1.3l-10.59,-6.11c-4.33,-2.49 -9.96,-2.25 -16.14,1.31c-10.93,6.28 -20.19,21.05 -23.42,36c-1.43,6.53 3.82,10 10.58,6.11z" id="F"/>
  <path d="m163.86,334.28a7.79,7.79 0 0 1 -7.09,0c-1.97,-1.13 -1.97,-2.95 0,-4.09a7.87,7.87 0 0 1 7.09,0c1.97,1.14 1.97,2.96 0,4.09z" id="G"/>
 </defs>
 <g class="layer">
  <title>Layer 1</title>
  <path class="B" d="m211.5,444.5c-13.43,8.1 -26.75,16.4 -41.09,22.75c-9.25,4.09 -19.25,7.11 -29.42,7.45c-8.25,0.27 -19.94,-1.74 -24.18,-10.32c-2.6,-5.26 -0.89,-11.84 2.69,-16.5s8.73,-7.83 13.75,-10.89l72.64,-44.2c23.87,-14.51 47.89,-29.09 73.79,-39.75c10.12,-4.16 23.16,-10.81 34.4,-9.66c6.79,0.69 14.58,2.8 19.3,8.01c5.82,6.44 5.68,12.24 -0.47,17.63c-8.2,7.1 -15.42,11.28 -22.78,15.74l-98.63,59.74z" id="svg_3" opacity="0.3"/>
  <use class="D" id="svg_4" xlink:href="#C"/>
  <g class="B" id="svg_5">
   <use id="svg_6" xlink:href="#C"/>
   <path d="m269.94,344.82c0,-15.42 9.4,-33.38 21,-40.02c0.59,-0.34 1.19,-0.64 1.8,-0.91l0.17,-0.08c0.39,-0.18 0.79,-0.34 1.2,-0.48c0.3,-0.11 0.6,-0.23 0.9,-0.33l0.88,-0.24c0.41,-0.09 0.8,-0.19 1.19,-0.25l0.64,-0.09a11.4,11.4 0 0 1 1.39,-0.09l0.27,0l0.83,0a24.65,24.65 0 0 1 11.36,3.22c3.46,1.97 6.4,4.76 8.54,8.12c2.13,2.97 3.4,6.46 3.68,10.09c0.15,1.08 0.23,2.17 0.24,3.26c0.01,0.09 0.01,0.18 0,0.28l0,0.3c0,15.43 -9.4,33.38 -21,40.03c-0.61,0.35 -1.21,0.64 -1.8,0.92l-0.16,0.08c-0.41,0.18 -0.81,0.32 -1.2,0.46l-0.91,0.33c-0.29,0.1 -0.59,0.17 -0.88,0.24s-0.79,0.19 -1.2,0.26l-0.63,0.09c-0.45,0 -2.02,0.11 -2.18,0.11l-0.28,0a24.64,24.64 0 0 1 -11.37,-3.21a24.56,24.56 0 0 1 -8.55,-8.13c-2.12,-2.97 -3.39,-6.46 -3.66,-10.09c-0.15,-1.08 -0.23,-2.16 -0.24,-3.24c-0.01,-0.1 -0.01,-0.19 0,-0.28l0,-0.31l-0.03,-0.04z" id="svg_7"/>
  </g>
  <path d="m290.38,369.28c-9.27,-3.94 -11.13,-20.38 -4.15,-36.72s20.14,-26.42 29.41,-22.48s11.13,20.37 4.15,36.72s-20.14,26.41 -29.41,22.48z" fill="#edf0f8" id="svg_8"/>
  <g class="B" id="svg_9">
   <path d="m296.88,362.6c2.27,-0.07 4.49,-0.73 6.43,-1.92c8.66,-4.98 15.7,-18.39 15.7,-29.86c0,-6.18 -2.05,-10.91 -5.58,-12.97c-3,-1.72 -6.79,-1.39 -10.69,0.82c-8.66,4.98 -15.7,18.38 -15.7,29.86c0,6.17 2.05,10.89 5.57,12.95c1.3,0.75 2.77,1.13 4.27,1.12zm12.23,-44.59a7.19,7.19 0 0 1 3.64,0.93c3.18,1.83 5,6.16 5,11.88c0,11.12 -6.76,23.99 -15.07,28.77c-3.5,2.02 -6.85,2.29 -9.44,0.81c-3.18,-1.84 -5.01,-6.16 -5.01,-11.87c0,-11.12 6.77,-23.99 15.08,-28.77a11.76,11.76 0 0 1 5.8,-1.75z" id="svg_10" opacity="0.4"/>
   <path d="m295.64,346.91a3.24,3.24 0 0 1 -0.12,1.49c-0.16,0.49 -0.43,0.93 -0.78,1.29l-1.62,1.6c0.4,1.27 1.23,2.37 2.35,3.11s2.45,1.09 3.78,0.98l0.38,-2.42a2.96,2.96 0 0 1 0.52,-1.4a2.95,2.95 0 0 1 1.14,-0.97c0.74,-0.19 1.2,0.52 1.03,1.59l-0.39,2.4a19.02,19.02 0 0 0 8.03,-7.9l-1.23,-0.82a1.53,1.53 0 0 1 -0.4,-0.7a1.52,1.52 0 0 1 0.01,-0.81a3.1,3.1 0 0 1 0.33,-0.99c0.5,-1.03 1.39,-1.57 1.92,-1.2l1.24,0.83c0.82,-2 1.41,-4.08 1.76,-6.21a19.89,19.89 0 0 0 0.12,-5.78l-1.61,1.6a1.68,1.68 0 0 1 -0.72,0.44c-0.11,0.03 -0.22,0.04 -0.33,0.02s-0.22,-0.06 -0.32,-0.12a0.77,0.77 0 0 1 -0.23,-0.25a0.78,0.78 0 0 1 -0.11,-0.32c-0.08,-0.5 -0.04,-1.01 0.12,-1.5s0.43,-0.92 0.79,-1.28l1.62,-1.6a5.92,5.92 0 0 0 -2.36,-3.11a5.94,5.94 0 0 0 -3.79,-0.96l-0.38,2.4a2.88,2.88 0 0 1 -0.52,1.37c-0.29,0.4 -0.67,0.72 -1.12,0.93c-0.73,0.19 -1.19,-0.52 -1.02,-1.57l0.39,-2.42a19.1,19.1 0 0 0 -8.03,7.9l1.22,0.83c0.2,0.19 0.35,0.43 0.42,0.7s0.07,0.54 -0.01,0.8c-0.07,0.35 -0.17,0.68 -0.32,1c-0.52,1.03 -1.4,1.56 -1.93,1.2l-1.24,-0.83a27.22,27.22 0 0 0 -1.77,6.23a19.76,19.76 0 0 0 -0.12,5.77l1.63,-1.6a1.52,1.52 0 0 1 0.69,-0.45a0.79,0.79 0 0 1 0.67,0.13c0.09,0.07 0.17,0.16 0.22,0.26s0.09,0.22 0.09,0.34z" id="svg_11"/>
   <path d="m189.83,412.7l115.99,-66.75a10.05,10.05 0 0 0 3.04,-3.5c0.72,-1.39 1.12,-2.92 1.14,-4.49c0,-3.07 -1.88,-4.49 -4.18,-3.15l-17.7,10.22l-3.25,0.29l-103.42,58.08l8.38,9.3z" id="svg_12"/>
  </g>
  <path class="C" d="m293.39,351.01l12.55,-7.19a6.28,6.28 0 0 0 1.93,-2.2c0.46,-0.88 0.71,-1.85 0.72,-2.84c0,-1.93 -1.18,-2.78 -2.65,-1.98l-12.55,7.19c-0.8,0.57 -1.46,1.33 -1.91,2.2a6.29,6.29 0 0 0 -0.72,2.83c0,1.93 1.17,2.82 2.63,1.99z" id="svg_13"/>
  <path class="D" d="m293.52,348.6l12.23,-7.05c0.27,-0.19 0.49,-0.44 0.65,-0.73s0.24,-0.62 0.24,-0.95c0,-0.65 -0.4,-0.95 -0.89,-0.67l-12.23,7.05c-0.27,0.19 -0.49,0.45 -0.65,0.74s-0.24,0.62 -0.24,0.95c0,0.65 0.4,0.94 0.89,0.66z" id="svg_14"/>
  <path class="B" d="m189.81,412.7l-17.52,-10.09l-8.37,-9.38l17.53,10.1l8.36,9.37z" id="svg_15"/>
  <path class="C" d="m170.21,382.58l89.44,-51.46l23.1,13.31l0,3.59l-89.43,51.46c-8.05,4.63 -19.75,5.41 -26.12,1.74c-2.72,-1.58 -4.01,-3.7 -4,-5.98l0,-3.56c0.04,-3.04 2.41,-6.32 7.01,-9.1z" id="svg_16"/>
  <use class="D" id="svg_17" xlink:href="#D"/>
  <use class="B" id="svg_18" xlink:href="#D"/>
  <path class="C" d="m167.22,396.11c6.37,3.67 18.12,2.91 26.11,-1.72l89.42,-51.46l-4.02,-2.34l-2.3,-1.32l-10.57,-6.09l-6.18,-3.57l-89.43,51.45c-8.07,4.63 -9.41,11.38 -3.03,15.05z" id="svg_19"/>
  <use class="D" id="svg_20" xlink:href="#E"/>
  <use class="B" id="svg_21" xlink:href="#E"/>
  <use class="C" id="svg_22" xlink:href="#F"/>
  <g class="B" id="svg_23">
   <use id="svg_24" xlink:href="#F"/>
   <path d="m142.82,384.9a0.74,0.74 0 0 0 0.34,-0.08c0.1,-0.04 0.19,-0.1 0.27,-0.18a0.82,0.82 0 0 0 0.17,-0.28c0.04,-0.1 0.06,-0.21 0.06,-0.32s-0.03,-0.22 -0.07,-0.32c-5.15,-11.58 -3.31,-19.25 0.14,-22.54c1.13,-1.11 2.58,-1.83 4.15,-2.05a7.45,7.45 0 0 1 4.56,0.8a0.84,0.84 0 0 0 1.12,-0.39c0.1,-0.2 0.12,-0.43 0.04,-0.64s-0.22,-0.38 -0.42,-0.48a9.17,9.17 0 0 0 -5.56,-0.94c-1.91,0.27 -3.68,1.15 -5.07,2.49c-3.84,3.7 -5.99,12.05 -0.5,24.43c0.07,0.15 0.18,0.28 0.31,0.36a0.85,0.85 0 0 0 0.46,0.14z" id="svg_25"/>
   <path d="m138.14,389.09a0.73,0.73 0 0 0 0.33,-0.07a0.86,0.86 0 0 0 0.27,-0.19a0.84,0.84 0 0 0 0.18,-0.27c0.04,-0.1 0.06,-0.21 0.05,-0.32s-0.02,-0.22 -0.07,-0.32c-4.89,-11.38 -3.09,-21.07 -0.07,-25.91a11.45,11.45 0 0 1 6.98,-5.05a9.56,9.56 0 0 1 3.84,-0.06c1.27,0.24 2.47,0.73 3.55,1.45a0.84,0.84 0 0 0 0.59,0.06c0.2,-0.05 0.37,-0.17 0.48,-0.35a0.83,0.83 0 0 0 0.13,-0.58a0.84,0.84 0 0 0 -0.3,-0.52c-1.26,-0.84 -2.67,-1.42 -4.17,-1.7a11.18,11.18 0 0 0 -4.5,0.09c-3.35,0.8 -6.25,2.88 -8.07,5.8c-3.25,5.19 -5.2,15.48 0,27.47c0.07,0.14 0.18,0.26 0.32,0.34s0.3,0.13 0.46,0.13zm-18.99,42.56c0,-15.44 9.4,-33.38 21,-40.04c0.61,-0.35 1.2,-0.63 1.8,-0.91l0.16,-0.08c0.41,-0.18 0.8,-0.32 1.2,-0.47l0.91,-0.32c0.29,-0.1 0.58,-0.17 0.88,-0.24s0.79,-0.2 1.18,-0.27l0.64,-0.08c0.46,0 0.92,-0.08 1.4,-0.1l1.1,0a24.57,24.57 0 0 1 11.36,3.21c3.47,1.98 6.4,4.77 8.54,8.13c2.12,2.96 3.4,6.45 3.68,10.08a25.32,25.32 0 0 1 0.24,3.26c0,0.09 0,0.18 0,0.27l0,0.31c0,15.44 -9.4,33.38 -21,40.04c-0.62,0.35 -1.22,0.63 -1.8,0.9l-0.17,0.09c-0.4,0.18 -0.81,0.32 -1.2,0.47s-0.61,0.24 -0.9,0.32s-0.59,0.17 -0.88,0.24s-0.81,0.19 -1.2,0.26l-0.63,0.09c-0.46,0 -2.02,0.12 -2.19,0.12l-0.28,0c-3.99,-0.14 -7.89,-1.24 -11.36,-3.22a24.58,24.58 0 0 1 -8.55,-8.13c-2.12,-2.96 -3.39,-6.45 -3.67,-10.08a24.97,24.97 0 0 1 -0.24,-3.26c0,-0.09 0,-0.18 0,-0.27l0,-0.31l-0.02,-0.01z" id="svg_26"/>
  </g>
  <path d="m139.58,456.11c-9.27,-3.93 -11.12,-20.37 -4.15,-36.72s20.14,-26.41 29.41,-22.48s11.13,20.38 4.16,36.72s-20.15,26.42 -29.42,22.48z" fill="#edf0f8" id="svg_27"/>
  <g class="B" id="svg_28">
   <path d="m146.09,449.43a13.14,13.14 0 0 0 6.42,-1.91c8.66,-5 15.7,-18.39 15.7,-29.88c0,-6.17 -2.05,-10.89 -5.57,-12.95c-3,-1.72 -6.79,-1.39 -10.7,0.81c-8.66,4.98 -15.7,18.39 -15.7,29.86c0,6.18 2.05,10.89 5.58,12.96c1.3,0.74 2.77,1.12 4.27,1.11zm12.22,-44.6c1.28,-0.01 2.54,0.32 3.64,0.95c3.18,1.83 5.01,6.16 5.01,11.86c0,11.13 -6.76,23.99 -15.07,28.78c-3.5,2.01 -6.85,2.31 -9.44,0.82c-3.18,-1.84 -5.01,-6.16 -5.01,-11.88c0,-11.13 6.76,-23.99 15.07,-28.77a11.76,11.76 0 0 1 5.8,-1.76z" id="svg_29" opacity="0.4"/>
   <path d="m144.83,433.75c0.08,0.5 0.05,1.01 -0.11,1.5s-0.43,0.92 -0.8,1.28l-1.6,1.6c0.41,1.27 1.24,2.37 2.35,3.11a5.91,5.91 0 0 0 3.79,0.96l0.37,-2.4c0.06,-0.49 0.24,-0.96 0.52,-1.36a2.91,2.91 0 0 1 1.11,-0.94c0.74,-0.19 1.2,0.52 1.04,1.57l-0.39,2.42c3.41,-1.77 6.2,-4.52 8.03,-7.9l-1.23,-0.83a1.5,1.5 0 0 1 -0.4,-0.7c-0.07,-0.26 -0.07,-0.54 0.01,-0.8c0.05,-0.35 0.16,-0.69 0.32,-1.01c0.5,-1.02 1.4,-1.55 1.91,-1.19l1.26,0.83c0.82,-2 1.41,-4.08 1.75,-6.21a19.89,19.89 0 0 0 0.13,-5.79l-1.62,1.6a1.54,1.54 0 0 1 -0.71,0.45c-0.11,0.03 -0.22,0.04 -0.34,0.02a0.76,0.76 0 0 1 -0.54,-0.36a0.77,0.77 0 0 1 -0.11,-0.32a3.17,3.17 0 0 1 0.91,-2.78l1.61,-1.6c-0.41,-1.27 -1.24,-2.37 -2.36,-3.11a5.95,5.95 0 0 0 -3.79,-0.98l-0.37,2.42a2.94,2.94 0 0 1 -0.53,1.36c-0.29,0.4 -0.67,0.72 -1.12,0.94c-0.72,0.19 -1.18,-0.52 -1.01,-1.59l0.39,-2.4c-3.42,1.76 -6.22,4.51 -8.04,7.89l1.23,0.83c0.2,0.19 0.34,0.43 0.41,0.7s0.06,0.55 -0.02,0.81c-0.05,0.34 -0.16,0.68 -0.31,0.99c-0.51,1.03 -1.39,1.57 -1.92,1.19l-1.26,-0.82c-0.82,2 -1.41,4.09 -1.75,6.22c-0.33,1.91 -0.37,3.85 -0.13,5.77l1.62,-1.6c0.2,-0.2 0.44,-0.35 0.71,-0.44a0.78,0.78 0 0 1 0.34,-0.02c0.11,0.02 0.22,0.06 0.31,0.12a0.8,0.8 0 0 1 0.23,0.25a0.77,0.77 0 0 1 0.11,0.32zm8.9,-62.57l2.9,-17.37l29.54,32.86c1.57,1.72 1.12,3.89 -1.39,5.34a12.48,12.48 0 0 1 -11.25,0c-0.52,-0.3 -0.99,-0.67 -1.4,-1.1l-18.4,-19.73z" id="svg_30"/>
  </g>
  <path class="C" d="m147.4,378.55l7.97,-46.72l10,0.56l-4.04,23.72l-2.9,17.37l-1.05,5.73c-0.11,0.37 -0.28,0.7 -0.52,1a2.8,2.8 0 0 1 -0.87,0.7a7.87,7.87 0 0 1 -7.1,0c-0.48,-0.17 -0.88,-0.5 -1.15,-0.93s-0.39,-0.93 -0.34,-1.43z" id="svg_31"/>
  <use class="D" id="svg_32" xlink:href="#G"/>
  <use class="B" id="svg_33" xlink:href="#G"/>
  <g class="C" id="svg_34">
   <path d="m157.77,377.02c-0.74,4.45 6.7,9.73 5.29,17.8l-5.09,29.85c-0.91,4.45 -3.36,7.89 -6.39,8.64c-2.34,0.49 -4.27,-1.38 -3.67,-6.21l5.19,-30.42c0.7,-4.1 -7.31,-6.95 -9.76,-6.48a24.94,24.94 0 0 0 -8.7,5.65l1.88,-7.69c2.04,-8.35 10.86,-9.47 11.98,-15.97l9.27,4.83z" id="svg_35"/>
   <path d="m149.6,427.82l2.36,-14.18c0.25,-0.96 0.73,-1.84 1.39,-2.58a6.33,6.33 0 0 1 2.4,-1.67c1.81,-0.68 3.07,0.11 2.79,1.77l-2.36,14.19c-0.25,0.95 -0.73,1.83 -1.38,2.56s-1.48,1.31 -2.4,1.68c-1.83,0.68 -3.11,-0.11 -2.8,-1.77z" id="svg_36"/>
  </g>
  <path class="D" d="m151.82,426.86l2.3,-13.91a2.13,2.13 0 0 1 0.47,-0.84a2.12,2.12 0 0 1 0.8,-0.55c0.61,-0.23 1.03,0 0.95,0.59l-2.32,13.91a2.08,2.08 0 0 1 -0.47,0.84c-0.22,0.24 -0.49,0.43 -0.8,0.55c-0.67,0.23 -1.03,-0.03 -0.93,-0.59z" id="svg_37"/>
  <path class="C" d="m158.45,164.43l4.87,-8.35l-20.57,-11.83a2.39,2.39 0 0 0 -1.25,-0.24c-0.44,0.04 -0.85,0.19 -1.2,0.44a7.61,7.61 0 0 0 -2.43,2.57c-0.59,1.03 -0.94,2.18 -1,3.37a2.43,2.43 0 0 0 0.19,1.22c0.17,0.38 0.43,0.71 0.77,0.97l20.62,11.85z" id="svg_38"/>
  <path class="B" d="m157.45,162.21c0,2.19 1.55,3.08 3.45,1.98a7.54,7.54 0 0 0 2.42,-2.55a7.53,7.53 0 0 0 1.01,-3.38c0,-2.18 -1.54,-3.07 -3.43,-1.98c-1,0.65 -1.84,1.52 -2.44,2.56s-0.94,2.18 -1.01,3.37z" id="svg_39"/>
  <path class="C" d="m161.44,158.51c0.28,-0.18 0.61,-0.25 0.95,-0.2l20.13,11.55l0.48,0.28l-2.36,4.09l-20.12,-11.54l-0.56,-0.35c-0.18,-0.25 -0.26,-0.55 -0.24,-0.85c0.04,-0.59 0.21,-1.17 0.51,-1.69s0.71,-0.96 1.21,-1.29z" id="svg_40"/>
  <path class="B" d="m156.38,331.76l27.51,-160.99l7.85,0.44l-24.44,142.93l-2.29,13.64l-0.81,4.51c-0.08,0.3 -0.22,0.57 -0.41,0.81s-0.43,0.44 -0.71,0.58c-0.86,0.44 -1.82,0.67 -2.78,0.67s-1.93,-0.23 -2.79,-0.67a1.81,1.81 0 0 1 -0.9,-0.77c-0.2,-0.34 -0.29,-0.75 -0.23,-1.15z" id="svg_41"/>
  <path d="m183.57,172.66l7.93,0l-2.49,14.56l-6.31,1.49c-0.61,0.14 -1.26,0.25 -1.93,0.33l2.8,-16.38z" fill="#000" id="svg_42" opacity="0.3"/>
  <path d="m190.58,172.69a6.17,6.17 0 0 1 -2.79,0.66c-0.97,0 -1.92,-0.23 -2.79,-0.66a1.69,1.69 0 0 1 -1.15,-1.61a1.69,1.69 0 0 1 0.32,-0.99c0.2,-0.29 0.5,-0.5 0.83,-0.62c0.87,-0.43 1.82,-0.65 2.79,-0.65a6.25,6.25 0 0 1 2.79,0.65c0.34,0.12 0.63,0.33 0.84,0.62a1.69,1.69 0 0 1 0,1.98c-0.21,0.29 -0.5,0.5 -0.84,0.62z" fill="#4f556d" id="svg_43"/>
  <path class="B" d="m182.76,185.22c-4.52,1.05 -10.65,0.5 -13.69,-1.25c-1.29,-0.74 -1.8,-1.58 -1.65,-2.37c0.22,-1.1 2.09,-12.38 2.09,-12.38l30.93,-0.08l-2.09,12.42l-15.59,3.66z" id="svg_44"/>
  <g class="C" id="svg_45">
   <path d="m184.79,172.8c-4.51,1.05 -10.64,0.5 -13.68,-1.26c-1.26,-0.72 -1.79,-1.54 -1.65,-2.32c0.19,-1.11 1.7,-2.14 4.35,-2.78l15.57,-3.6l11,6.34l-15.59,3.62zm7.86,2.82l22.99,13.27l-2.34,4.06l-22.98,-13.17c-1.35,-0.77 0.47,-4.95 2.33,-4.16z" id="svg_46"/>
   <path d="m226.41,202.75l4.86,-8.34l-20.62,-11.89a2.42,2.42 0 0 0 -2.47,0.22c-1,0.65 -1.83,1.52 -2.43,2.55a7.52,7.52 0 0 0 -1,3.38a2.43,2.43 0 0 0 0.19,1.21c0.17,0.39 0.44,0.72 0.77,0.97l20.7,11.9z" id="svg_47"/>
  </g>
  <path class="B" d="m225.4,200.54c0,2.19 1.53,3.06 3.43,1.98a7.61,7.61 0 0 0 2.42,-2.56c0.6,-1.04 0.94,-2.19 1.01,-3.38c0,-2.18 -1.53,-3.07 -3.43,-1.98c-1,0.65 -1.83,1.53 -2.43,2.56a7.54,7.54 0 0 0 -1,3.38z" id="svg_48"/>
  <path class="C" d="m164.2,174.35l3.39,-1.98c0.6,-0.25 1.26,-0.32 1.91,-0.23a3.7,3.7 0 0 1 1.76,0.77c1.47,1.06 2.67,2.46 3.5,4.07a11.58,11.58 0 0 1 1.29,5.22c0.04,0.65 -0.1,1.29 -0.4,1.87s-0.74,1.07 -1.28,1.42l-3.39,1.99a3.69,3.69 0 0 1 -1.91,0.22a3.68,3.68 0 0 1 -1.76,-0.77c-1.48,-1.07 -2.68,-2.46 -3.51,-4.08s-1.27,-3.4 -1.27,-5.21a3.62,3.62 0 0 1 0.38,-1.87c0.3,-0.58 0.74,-1.07 1.29,-1.42z" id="svg_49"/>
  <path class="B" d="m171.05,187.46l3.35,-1.97c0.54,-0.35 0.99,-0.84 1.28,-1.42s0.44,-1.22 0.4,-1.87c0.03,-1.61 -0.32,-3.21 -1.02,-4.66l-3.45,1.99c0.69,1.45 1.04,3.05 1.01,4.66c0.04,0.63 -0.08,1.26 -0.36,1.83s-0.69,1.07 -1.21,1.44z" id="svg_50"/>
  <path class="C" d="m167.29,186.94c-1.47,-1.06 -2.67,-2.46 -3.5,-4.07s-1.27,-3.4 -1.28,-5.22c0.16,-3.32 2.57,-4.56 5.37,-2.78c1.47,1.07 2.67,2.46 3.51,4.07a11.58,11.58 0 0 1 1.29,5.22c-0.17,3.35 -2.58,4.59 -5.39,2.78z" id="svg_51"/>
  <path class="B" d="m169.65,186.72c1.65,0.07 1.93,-1.78 1.97,-2.59c-0.03,-1.63 -0.43,-3.23 -1.17,-4.67a10.59,10.59 0 0 0 -3.14,-3.67c-0.53,-0.37 -1.14,-0.6 -1.78,-0.66c-1.65,-0.08 -1.93,1.77 -1.95,2.58a10.49,10.49 0 0 0 1.16,4.67c0.74,1.45 1.82,2.71 3.13,3.67c0.53,0.37 1.14,0.6 1.78,0.67z" id="svg_52"/>
  <path class="D" d="m167.31,175.79c-0.47,-0.33 -1.02,-0.54 -1.59,-0.63c-0.28,0.54 -0.44,1.14 -0.46,1.75c0.02,1.63 0.43,3.23 1.17,4.68s1.82,2.7 3.14,3.67a4.01,4.01 0 0 0 1.59,0.64c0.29,-0.55 0.44,-1.15 0.46,-1.77c-0.03,-1.63 -0.43,-3.23 -1.17,-4.67a10.59,10.59 0 0 0 -3.14,-3.67z" id="svg_53"/>
  <g clip-path="url(#A)" id="svg_54" transform="matrix(1 0 0 1 0 0)">
   <g clip-path="url(#B)" id="svg_55">
    <path class="B" d="m430.48,525.24l-141.36,-0.63c-17,-0.07 -30.72,-13.87 -30.62,-30.82l1.53,-353.23c0.07,-16.95 13.92,-30.64 30.93,-30.56l141.36,0.64c17,0.07 30.71,13.86 30.62,30.82l-1.54,353.22c-0.07,16.95 -13.91,30.65 -30.92,30.56z" id="svg_56"/>
    <path d="m435.14,122.29l-28.27,-0.1c-0.92,0.01 -1.83,0.21 -2.68,0.56a7.02,7.02 0 0 0 -2.25,1.52a6.79,6.79 0 0 0 -1.48,2.24c-0.34,0.83 -0.5,1.72 -0.49,2.61l0,4.97c0.03,1.8 -0.68,3.54 -1.97,4.84a7.13,7.13 0 0 1 -4.92,2.07l-55.11,-0.24c-1.86,-0.05 -3.63,-0.82 -4.91,-2.13s-1.97,-3.06 -1.92,-4.87l0,-4.97c0.02,-0.89 -0.13,-1.78 -0.46,-2.62s-0.83,-1.6 -1.46,-2.25s-1.4,-1.17 -2.24,-1.53a7.22,7.22 0 0 0 -2.67,-0.59l-9.95,0l-24.76,-0.15c-2.93,-0.02 -5.82,0.53 -8.53,1.6s-5.17,2.66 -7.24,4.66s-3.73,4.37 -4.85,6.99s-1.72,5.42 -1.72,8.26l-1.51,346.08c-0.02,2.84 0.54,5.65 1.65,8.27s2.74,5.02 4.8,7.03a22.3,22.3 0 0 0 7.2,4.71c2.7,1.09 5.6,1.66 8.52,1.66l145.52,0.66c2.92,0.01 5.82,-0.53 8.52,-1.61s5.17,-2.65 7.24,-4.65s3.73,-4.37 4.86,-6.99a21.02,21.02 0 0 0 1.72,-8.26l1.5,-346.09c0.02,-5.73 -2.3,-11.22 -6.45,-15.29s-9.79,-6.36 -15.69,-6.39z" fill="#f6f7fb" id="svg_57"/>
    <g class="C" id="svg_58">
     <path d="m405.14,287.19l-5.14,0.04l0.05,5.12l-15.35,0.14l0.14,15.56l4.99,-0.04l0.04,5.32l-5.06,0.05l0.05,4.9l20.33,-0.17l-0.08,-10.16l-15.36,0.13l-0.04,-5.15l10.29,-0.09l-0.04,-5.03l5.19,-0.05l0.05,4.91l5.11,-0.05l0.13,15.56l5.14,-0.05l0.08,10.19l-5,0.05l-0.04,-4.86l-5.11,0.04l0.04,4.9l-5.19,0.05l-0.04,-4.85l-5.11,0.05l0.04,4.78l-5.19,0.05l-0.05,-4.82l-5.1,0.04l0.04,4.99l-10.49,0.09l0.08,0.07l-0.09,-10.3l-5.06,0.05l-0.05,-5.19l9.99,-0.08l-0.09,-10.45l-5.01,0.05l0.08,0.07l-0.05,-5.29l4.93,-0.05l-0.04,-5.04l-10.17,0.09l0.03,-5.25l-0.07,0.07l10.2,-0.09l-0.05,-5.3l-4.96,0.04l-0.05,-5.11l-0.07,0.08l5.11,-0.05l-0.04,-5.05l15.61,-0.14l0.09,10.22l-10.19,0.08l0.04,4.97l10.12,-0.09l-0.04,-5.04l10.39,0l-0.07,-0.08l0.04,5.24l0.07,-0.07zm-98.44,-55.88l35.83,-0.31l0.31,35.88l-35.82,0.31l-0.32,-35.88zm30.88,30.53l-0.22,-25.53l-25.49,0.22l0.22,25.54l25.49,-0.23zm5.6,41.63l0.31,35.88l-35.82,0.31l-0.31,-35.88l35.82,-0.31zm-30.64,5.37l0.23,25.53l25.49,-0.22l-0.23,-25.53l-25.49,0.22zm66.44,-78.16l35.82,-0.31l0.31,35.88l-35.82,0.31l-0.31,-35.88zm30.72,4.97l-25.49,0.23l0.22,25.53l25.5,-0.22l-0.23,-25.54zm-41.12,10.56l5.03,-0.04l0.09,10.22l-10.06,0.09l0.09,10.26l-5.19,0.04l-0.04,-4.81l-5.2,0.05l0.09,10.03l-5.35,0.04c0,0 0.08,0.07 0.08,0.07l-0.18,-20.55l20.76,-0.18l-0.05,-5.29l-0.07,0.07z" id="svg_59"/>
     <path d="m374.23,302.98l0.04,5.15l-10.19,0.09l0.04,5.03l-10.46,0.09l-0.05,-5l5.04,-0.04l-0.04,-4.96l-4.97,0.04l0.05,5.03l-5.16,0.05l-0.13,-15.6l-0.08,0.07l5.24,-0.04l-0.08,-0.08l0.05,5.18l10.4,-0.09l0.05,5.24l10.32,-0.09l-0.07,-0.07zm30.87,-20.88l-0.05,-5.15l-5.05,0.05l-0.05,-5.03l10.1,-0.09l0.04,4.93l5.13,-0.04l0.13,15.35l-10.17,0.09l-0.04,-5.02l-0.07,0.08l5.02,-0.04l-0.04,-5.25l-5.03,0.05l0.08,0.07zm-30.64,46.73l0.03,5.25l0.07,-0.08l-10.24,0.09l0.04,5.05l-5.23,0.04l-0.09,-10.21l-0.07,0.07l5.23,-0.04l-0.05,-5.25l-0.07,0.08l5.11,-0.04l0.05,5.16l5.29,-0.05c0,0 -0.07,-0.07 -0.07,-0.07zm-52.06,-40.7l0.09,10.02l-5,0.04l-0.04,-4.84l-5.17,0.05l0.04,4.85l-5.01,0.04l-0.09,-10.02l15.18,-0.13l0,-0.01zm46.25,-41.99l-10.2,0.09l-0.13,-15.34l4.87,-0.05l0.09,10.25l5.31,-0.05l-0.07,-0.07l0.06,5.24c0,0 0.07,-0.07 0.07,-0.07zm-61.59,36.57l-0.09,-9.98l10.1,-0.09l0.09,9.98l-10.1,0.09z" id="svg_60"/>
     <path d="m368.59,241.04l-0.09,-10.19l4.97,-0.04l0.09,10.12l-5.04,0.04l0.07,0.07zm-15.65,5.16l-4.85,0.04l-0.09,-10.12l4.85,-0.04l0.09,10.12zm-14.96,36.4l-10.31,0.09l-0.05,-5.16l-0.07,0.08l10.39,-0.1l-0.07,-0.07l0.04,5.24l0.07,-0.08zm15.71,46.33l0.09,10.33l-4.81,0.05l-0.09,-10.27l4.9,-0.04c0,0.01 -0.09,-0.07 -0.09,-0.07zm15.18,-67.14l4.86,-0.04l0.04,4.91l-4.85,0.04l-0.05,-4.91zm-25.82,31.03l0.05,5.17l-4.82,0.04l-0.04,-5.1l4.9,-0.04c0,0 -0.09,-0.07 -0.09,-0.07z" id="svg_61"/>
     <path d="m348.4,292.86l-5.34,-0.04c0,0 0.08,0.08 0.08,0.07l0.05,-5.15l-0.07,0.07l5.23,-0.05l-0.07,-0.07l0.05,5.24l0.07,-0.07z" id="svg_62"/>
     <path d="m343.19,287.74l-5.16,0.04l-0.05,-5.18l-0.07,0.08l5.24,-0.04l-0.08,-0.08l0.05,5.25l0.07,-0.07zm10.63,36.1l-5.01,0.04l-0.04,-4.96l4.93,-0.04l0.05,5.03l0.07,-0.07z" id="svg_63"/>
     <path d="m353.75,323.91l5.25,-0.04l-0.08,-0.07l0.05,5.24l0.07,-0.07l-5.34,-0.03c-0.01,-0.01 0.08,0.07 0.08,0.06l0.04,-5.16l-0.07,0.07zm-26.13,-46.38l-5.02,0.04l-0.05,-4.97l4.95,-0.04l0.05,5.04l0.07,-0.07zm46.87,56.55l5.02,-0.05l0.04,4.97l-4.95,0.05l-0.04,-5.05l-0.07,0.08zm10.52,-0.08l4.82,-0.04l0.04,4.95l-4.82,0.04l-0.04,-4.95zm15.22,0l0.04,4.86l-4.85,0.05l-0.04,-4.87l4.85,-0.04zm10.32,-0.13l0.04,4.85l-4.88,0.04l-0.04,-4.85l4.88,-0.04zm-46.69,-35.9l-0.05,-5.24l5.24,-0.05l0.04,5.24l-5.23,0.05zm-31.55,-56.52l0.13,15.2l-15.21,0.13l-0.13,-15.19l15.21,-0.14zm0.68,87.68l-15.14,0.14l-0.13,-15.29l15.14,-0.13l0.13,15.28zm56.47,-72.98l-0.13,-15.19l15.16,-0.13l0.14,15.19l-15.17,0.13zm-46.32,26.48l0,-0.07l-0.07,0l0.07,0.07zm25.86,4.88l-0.07,0l0,0.07l0.07,-0.07zm-31.06,-10l0,-0.08l-0.08,0l0.08,0.08zm15.62,15.38l0,-0.08l-0.07,0l0.07,0.08zm-5.21,-5.13l0,-0.07l-0.07,0l0.07,0.07zm25.72,-10.64l-0.07,0l0,0.08l0.07,-0.08z" id="svg_64"/>
     <path d="m358.45,272.31l0.08,10l-5.06,0.05l0.05,5.29l0.04,5.17l5.04,-0.05l-0.04,-5.17l10.37,-0.09l-0.09,-10.34l5.16,-0.05l-0.04,-4.94l-15.51,0.13zm-10.41,-0.22l0,0.07l0.08,0c0,0.01 -0.08,-0.07 -0.08,-0.07z" id="svg_65"/>
     <g fill-rule="evenodd" id="svg_66">
      <path d="m298.52,223.71l23.65,-0.71l-0.09,-3l-26.6,0.8l0.42,29.34l3,-0.04l-0.38,-26.39zm100.44,-3.41l26.63,0.12l-0.13,30.1l-3,-0.01l0.12,-27.1l-23.63,-0.11l0.01,-3zm-101.53,99.76l3,0l0.04,27.1l23.64,-0.04l0,3l-26.64,0.05l-0.04,-30.11zm125.14,27.04l0.01,-27.1l3,0l-0.01,30.11l-26.63,-0.01l0,-3l23.63,0z" id="svg_67"/>
     </g>
    </g>
    <rect class="D" fill="#f7f7f7" height="45" id="svg_68" rx="6" stroke="#c9c7c7" stroke-linejoin="bevel" width="151" x="285" y="415"/>
    <g fill="#fff" id="svg_69">
     <path d="m345.65,434.29c-0.06,-0.58 -0.3,-1.03 -0.73,-1.35s-1.01,-0.49 -1.75,-0.49c-0.5,0 -0.92,0.07 -1.27,0.22s-0.61,0.33 -0.79,0.58c-0.18,0.25 -0.27,0.54 -0.27,0.86c-0.01,0.26 0.04,0.49 0.16,0.69a1.74,1.74 0 0 0 0.5,0.51a3.81,3.81 0 0 0 0.74,0.37c0.28,0.1 0.58,0.19 0.9,0.26l1.3,0.32c0.63,0.14 1.21,0.33 1.74,0.57s0.99,0.54 1.38,0.89s0.69,0.77 0.9,1.24c0.22,0.48 0.33,1.03 0.33,1.64c0,0.91 -0.23,1.69 -0.68,2.36s-1.09,1.17 -1.93,1.54s-1.84,0.54 -3.02,0.54c-1.18,0 -2.2,-0.18 -3.07,-0.55s-1.54,-0.91 -2.02,-1.62c-0.48,-0.73 -0.74,-1.62 -0.76,-2.68l2.97,0c0.03,0.49 0.17,0.91 0.42,1.24c0.25,0.33 0.58,0.57 1,0.74s0.89,0.25 1.42,0.25c0.52,0 0.97,-0.08 1.35,-0.23s0.69,-0.37 0.9,-0.65a1.5,1.5 0 0 0 0.32,-0.94c0,-0.34 -0.09,-0.61 -0.29,-0.84s-0.46,-0.42 -0.83,-0.58s-0.81,-0.3 -1.34,-0.43l-1.58,-0.41c-1.23,-0.3 -2.19,-0.77 -2.9,-1.42s-1.06,-1.51 -1.06,-2.61c0,-0.89 0.23,-1.67 0.7,-2.34s1.14,-1.2 1.97,-1.57s1.77,-0.56 2.83,-0.56c1.08,0 2.02,0.18 2.82,0.56s1.44,0.9 1.89,1.57s0.68,1.44 0.69,2.32l-2.94,0zm10.07,10.76c-1.12,0 -2.08,-0.24 -2.88,-0.73s-1.41,-1.16 -1.84,-2.02s-0.64,-1.85 -0.64,-2.97c0,-1.14 0.21,-2.14 0.64,-2.99a4.86,4.86 0 0 1 1.85,-2.02c0.8,-0.48 1.75,-0.73 2.85,-0.73c0.95,0 1.78,0.18 2.5,0.53s1.28,0.84 1.69,1.48s0.65,1.38 0.69,2.24l-2.85,0c-0.08,-0.55 -0.29,-1 -0.64,-1.34s-0.78,-0.51 -1.34,-0.51c-0.46,0 -0.87,0.13 -1.22,0.39s-0.62,0.63 -0.81,1.12s-0.29,1.09 -0.29,1.78c0,0.71 0.09,1.31 0.28,1.81c0.2,0.49 0.47,0.87 0.82,1.13s0.76,0.39 1.22,0.39c0.35,0 0.66,-0.07 0.93,-0.21a1.84,1.84 0 0 0 0.69,-0.63c0.18,-0.28 0.3,-0.62 0.36,-1.01l2.85,0c-0.05,0.85 -0.27,1.6 -0.68,2.24c-0.4,0.64 -0.96,1.14 -1.67,1.5s-1.54,0.55 -2.51,0.55zm9.9,-0.01c-0.7,0 -1.32,-0.12 -1.86,-0.37a3.01,3.01 0 0 1 -1.29,-1.1c-0.31,-0.49 -0.47,-1.11 -0.47,-1.84c0,-0.61 0.11,-1.13 0.34,-1.55s0.52,-0.76 0.9,-1.01s0.82,-0.45 1.31,-0.58a9.76,9.76 0 0 1 1.54,-0.27l1.53,-0.19c0.39,-0.06 0.67,-0.16 0.85,-0.28s0.26,-0.29 0.26,-0.53l0,-0.04c0,-0.46 -0.14,-0.82 -0.43,-1.07c-0.28,-0.25 -0.67,-0.37 -1.19,-0.37c-0.54,0 -0.97,0.12 -1.29,0.37s-0.54,0.54 -0.64,0.91l-2.8,-0.23c0.15,-0.68 0.43,-1.26 0.84,-1.75a4.07,4.07 0 0 1 1.61,-1.14c0.66,-0.27 1.43,-0.41 2.3,-0.41c0.6,0 1.18,0.07 1.73,0.22s1.05,0.37 1.48,0.67s0.78,0.69 1.03,1.17s0.38,1.04 0.38,1.7l0,7.48l-2.87,0l0,-1.54l-0.08,0c-0.18,0.35 -0.41,0.65 -0.7,0.92a3.23,3.23 0 0 1 -1.06,0.61c-0.41,0.15 -0.88,0.22 -1.42,0.22zm0.86,-2.12c0.45,0 0.84,-0.09 1.18,-0.27a2.09,2.09 0 0 0 0.8,-0.74c0.19,-0.31 0.29,-0.65 0.29,-1.04l0,-1.18c-0.1,0.06 -0.23,0.12 -0.39,0.17l-0.55,0.14l-0.61,0.11l-0.55,0.08c-0.35,0.05 -0.66,0.13 -0.93,0.25s-0.47,0.27 -0.61,0.47s-0.22,0.43 -0.22,0.72c0,0.42 0.15,0.74 0.44,0.96s0.69,0.33 1.15,0.33zm10.63,-4.5l0,6.41l-3.02,0l0,-11.09l2.88,0l0,1.95l0.12,0c0.25,-0.64 0.65,-1.15 1.22,-1.53c0.56,-0.38 1.25,-0.57 2.06,-0.57c0.76,0 1.41,0.17 1.98,0.51a3.42,3.42 0 0 1 1.31,1.44c0.31,0.63 0.47,1.37 0.47,2.23l0,7.06l-3.02,0l0,-6.51c0,-0.68 -0.17,-1.21 -0.51,-1.59s-0.82,-0.58 -1.43,-0.58c-0.4,0 -0.76,0.09 -1.08,0.27s-0.54,0.43 -0.72,0.78s-0.26,0.74 -0.26,1.22z" fill="#f7f7f7" id="svg_70" stroke="#c9c7c7" stroke-linejoin="bevel"/>
    </g>
   </g>
   <path d="m515.15,403.34l-35.49,-61.86c-1.64,-3.12 -5.19,-4.92 -8.9,-4.52l-8.76,-1.29l-0.21,29.29l9.98,11.44c1.2,1.61 8.69,27.31 7.43,28.9c-4.88,6.14 -5.5,11.21 -17.77,45.7c-1.34,3.74 -4.69,16.06 -8.15,18.33c-5.42,3.57 -12.76,2.84 -17.14,-1.71l-33.18,-34.46c-5.81,-6.03 -15.79,-7.12 -22.66,-1.99c-7.52,5.62 -8.41,15.87 -2.15,22.37l41.21,42.81s2.31,56.53 37.71,90.39l8.61,79.64l66.27,-31.65l-14.19,-222.02c-0.19,-3.26 -1.07,-6.45 -2.61,-9.37z" fill="#f6b8a4" id="svg_71"/>
   <path class="C" d="m455.39,651.21l-4.34,-40.1s31.32,-34.59 84.28,-47.33l7.57,77.97l-87.51,9.46z" id="svg_72"/>
  </g>
  <rect fill="#f7f7f7" height="158" id="svg_74" stroke="#f4f4f4" transform="matrix(1 0 0 1 0 0)" width="147" x="286.56" y="202"/>
  <rect fill="#f7f7f7" height="24" id="svg_75" rx="11" ry="11" stroke="#c9c7c7" stroke-linejoin="bevel" transform="matrix(1 0 0 1 0 0) matrix(1 0 0 1 1.53846 21.5385)" width="141" x="292.17" y="191"/>
  <rect fill="#f7f7f7" height="24" id="svg_76" rx="11" ry="11" stroke="#c9c7c7" stroke-linejoin="bevel" width="141" x="292.17" y="293.33"/>
  <rect fill="#f7f7f7" height="24" id="svg_77" rx="11" ry="11" stroke="#c9c7c7" stroke-linejoin="bevel" transform="matrix(1 0 0 1 0 0)" width="141" x="292.17" y="252.33"/>
  <path d="m347.56,426.89c-2.65,0 -3.27,0 -3.94,0c-0.72,0 -1.46,0.01 -2.23,0.02c-1.52,0.03 -2.94,0.08 -3.58,0.12c-0.59,0.04 -1.64,0.12 -2.5,0.31c-0.73,0.16 -1.89,0.65 -2.34,1.31c-0.49,0.72 -0.6,1.84 -0.67,2.69c-0.04,0.45 -0.07,1.4 -0.07,2.37c-0.01,0.95 0,1.86 0,2.74c0,0.87 0,1.75 0,2.66c0,0.95 0,1.92 0,2.39c0,0.9 0,2.37 0,3.1c0,0.94 -0.16,1.89 0.29,2.58c0.5,0.76 1.38,0.9 2.38,1.15c0.67,0.17 1.58,0.54 2.42,0.56c0.92,0.01 1.84,0 2.7,0c0.85,0 1.61,0 2.61,0c0.89,0 1.9,0 2.67,0c0.9,0 1.82,0 2.75,0c0.65,0 1.84,0 2.58,0c0.94,0 1.87,0 2.67,0c0.99,0 2.04,0 2.62,0c0.98,0 1.64,0 2.79,0c0.79,0 1.78,0 2.7,0c0.82,0 1.71,0 2.58,0c0.92,0 1.84,0 2.75,0c0.9,0 1.8,0.01 2.27,-0.67c0.5,-0.72 1.24,-0.68 1.89,-1.35c0.59,-0.61 -0.48,-2.01 0.19,-2.6c0.64,-0.57 1.14,-0.86 1.14,-1.74c0,-0.91 0,-1.79 0,-2.67c0,-0.91 0,-1.79 0,-2.65c0,-0.92 -0.09,-1.79 -0.41,-2.47c-0.43,-0.94 -0.9,-1.77 -1.39,-2.32c-0.6,-0.66 -1.01,-1.48 -1.85,-1.54c-0.85,-0.06 -1.69,-0.33 -2.51,-0.86c-0.71,-0.46 -1.57,-0.47 -2.51,-0.47c-0.86,0 -1.7,0.05 -2.56,-0.29c-0.8,-0.32 -1.52,-0.88 -2.43,-1.03c-0.95,-0.15 -1.78,0.03 -2.64,-0.06c-1.05,-0.12 -1.84,-0.42 -2.37,-0.62c-0.8,-0.29 -1.86,-0.55 -2.64,-0.64l-1.14,-0.03l-0.85,0l-0.87,0" fill="#6366f1" id="svg_79" stroke="#6366f1" stroke-linejoin="bevel" transform="matrix(1 0 0 1 0 0)"/>
  <path d="m376.35,433.41c-2.64,2.64 -3.21,3.21 -3.76,4.1c-0.36,0.58 -0.81,1.63 -0.99,2.4c-0.17,0.77 -0.45,1.69 -0.53,2.66c-0.08,0.89 -0.01,1.78 -0.01,2.67c0,0.9 -0.33,0.05 0,-0.82c0.3,-0.78 0.76,-1.43 1.17,-2.06c0.43,-0.67 0.48,-1.48 0.59,-2.4c0.1,-0.85 0.59,-1.55 0.59,-2.48c0,-0.88 0.21,-1.62 0.52,-2.29c0.35,-0.74 0.92,-1.06 1.25,-1.59c0.41,-0.67 0.76,-0.76 -0.19,-0.76c-0.84,0 -0.99,0.76 -0.99,1.59c0,0.9 -0.5,0.24 0.13,-0.35c0.61,-0.57 1.36,-1.86 1.92,-1.24c0.22,0.24 -0.47,1.03 -0.86,1.67c-0.43,0.72 -0.64,1.63 -1.22,2.23c-0.56,0.58 -0.81,1.31 -1.13,1.98c-0.37,0.78 -0.36,1.59 -0.85,2.22c-0.55,0.7 -0.17,1.72 -0.33,2.6c-0.15,0.79 -1.45,2.49 -0.59,2.49c0.65,0 0.24,-1.48 0.57,-2.28c0.34,-0.81 0.41,-1.79 0.7,-2.6c0.29,-0.8 0.47,-1.66 1.01,-2.38c0.52,-0.69 0.27,-1.63 0.68,-2.43c0.39,-0.77 0.88,-1.29 1.37,-1.93c0.53,-0.7 1.37,-0.98 1.26,-0.41c-0.15,0.8 -0.51,1.27 -0.89,1.99c-0.35,0.67 -0.8,1.29 -1.27,2.03c-0.42,0.66 -0.7,1.35 -1.01,1.99c-0.36,0.76 0.16,1.79 -0.09,2.58c-0.28,0.88 -0.28,1.71 -0.62,2.47c-0.38,0.84 -2.05,2.05 -1.13,2.05c0.36,0 0,-1.28 0,-2.1c0,-1 0,-1.84 0,-1.3c0,0.93 0,1.78 0,2.63c0,0.97 0,0.18 0,-0.72c0,-0.94 0.27,-2.53 -0.59,-2.48c-0.62,0.04 0,1.54 0,2.39c0,0.82 0,1.76 0,2.7c0,0.77 0,1.77 0,2.62l-0.05,0.89l-0.37,0.74" fill="#6366f1" id="svg_81" stroke="#6366f1" stroke-linejoin="bevel" transform="matrix(1 0 0 1 0 0)"/>
  <text fill="#ffffff" font-family="Serif" font-size="25" font-weight="bold" id="svg_82" letter-spacing="0" stroke="#6366f1" stroke-linejoin="bevel" stroke-width="0" style="cursor: move;" text-anchor="middle" x="349.88" xml:space="preserve" y="445.18">Ord</text>
 </g>
</svg>